<svg xmlns="http://www.w3.org/2000/svg" viewBox="0 0 24 24" role="img" aria-hidden="false">
<title>GoHighLevel CRM Automation Icon</title>
<circle cx="8" cy="7" r="3" fill="#7e3bd0"/>
<path fill="#7e3bd0" d="M3.5 21.5h11v-1c0-3.6-2.7-6.5-5.5-6.5s-5.5 2.9-5.5 6.5v1z"/>
<path fill="#7e3bd0" d="M6.6 18.7A8.7 8.7 0 0 1 13.5 5.1V3.6l4 3.1-4 3.1v-1.5A6.1 6.1 0 0 0 9.3 17l-1.5 2.2z"/>
<path fill="#7e3bd0" fill-rule="evenodd" d="M20.2 12 19.3 12.75 19.15 13.99 18 13.5 16.85 13.99 16.7 12.75 15.8 12 16.7 11.25 16.85 10.01 18 10.5 19.15 10.01 19.3 11.25 20.2 12ZM18 10.9a1.1 1.1 0 1 0 0 2.2 1.1 1.1 0 0 0 0-2.2z"/>
</svg>
